<svg id="Layer_1" xmlns="http://www.w3.org/2000/svg" viewBox="0 0 475.71 148.28"><defs><style>.cls-1{fill:#bba975;}</style></defs><path class="cls-1" d="M185.45,61.23a15.51,15.51,0,0,1,15.9-15.85c5.46,0,9.66,2,12.3,6l-2.51,1.82a11.31,11.31,0,0,0-9.79-4.87c-7.24,0-12.48,5.51-12.48,12.89s5.24,12.89,12.48,12.89a11.88,11.88,0,0,0,10.2-5.19l2.55,1.77a14.85,14.85,0,0,1-12.75,6.38A15.51,15.51,0,0,1,185.45,61.23Z"/><path class="cls-1" d="M220.3,45.74h3.28V60.18h16.58V45.74h3.28v31h-3.28V63.14H223.58V76.71H220.3Z"/><path class="cls-1" d="M251.87,45.74h18.86v2.92H255.15V59.72H269v2.87H255.15V73.8h16.21v2.91H251.87Z"/><path class="cls-1" d="M276.06,61.23A15.5,15.5,0,0,1,292,45.38c5.46,0,9.65,2,12.29,6l-2.5,1.82A11.32,11.32,0,0,0,292,48.34c-7.25,0-12.48,5.51-12.48,12.89S284.71,74.12,292,74.12a11.89,11.89,0,0,0,10.2-5.19l2.55,1.77A14.87,14.87,0,0,1,292,77.08,15.5,15.5,0,0,1,276.06,61.23Z"/><path class="cls-1" d="M310.91,45.74h3.28V59.63c0,1.42-.14,3.1-.23,4.06a25.15,25.15,0,0,1,2.14-3.51l11.84-14.44h3.74L320.43,59.59,333,76.71h-4L318.29,62l-4.1,4.88v9.83h-3.28Z"/><path class="cls-1" d="M357.46,65.33,346.67,45.74h3.73l7.47,13.71a31.35,31.35,0,0,1,1.32,3.14,25.28,25.28,0,0,1,1.32-3.14l7.43-13.71h3.42l-10.53,19.5V76.71h-3.37Z"/><path class="cls-1" d="M373.09,61.23A15.5,15.5,0,0,1,389,45.38c8.83,0,15.94,6.51,15.94,15.85S397.82,77.08,389,77.08A15.5,15.5,0,0,1,373.09,61.23Zm28.42,0c0-7.38-5.28-12.89-12.52-12.89s-12.48,5.51-12.48,12.89S381.79,74.12,389,74.12,401.51,68.61,401.51,61.23Z"/><path class="cls-1" d="M411.35,66.15V45.74h3.28V65.92c0,5.51,3,8.24,7.84,8.24s7.83-2.73,7.83-8.24V45.74h3.28V66.15c0,7.24-4.83,10.93-11.11,10.93S411.35,73.39,411.35,66.15Z"/><path class="cls-1" d="M441.78,45.74h9.29c6.47,0,11,3,11,9.48A8.6,8.6,0,0,1,455.58,64l7.57,12.75h-3.88l-7.1-12.2c-.46,0-1,0-1.46,0h-5.65V76.71h-3.28Zm9.11,16c5.06,0,7.79-2.14,7.79-6.51s-2.78-6.56-7.79-6.56h-5.83V61.73Z"/><path class="cls-1" d="M184.59,92.06h3.5l6.52,20.64c.36,1.32.82,3.19.86,3.37a30.3,30.3,0,0,1,1-3.37l8.06-21h.54l8.07,21c.45,1.27.95,3.19,1,3.37,0-.18.45-2.1.86-3.37l6.47-20.64h3.33l-10.21,31.3h-.54l-8.34-22a23.59,23.59,0,0,1-.91-3c0,.14-.5,1.83-1,3l-8.47,22h-.54Z"/><path class="cls-1" d="M230.64,92.06H249.5V95H233.92v11.07h13.89v2.87H233.92v11.2h16.22V123h-19.5Z"/><path class="cls-1" d="M267.36,91.74h.54L281,123h-3.46l-2.82-7H260.52l-2.77,7h-3.24Zm6.24,21.5-4.79-11.84a31.75,31.75,0,0,1-1.18-3.69c-.05.09-.64,2.23-1.23,3.65l-4.74,11.88Z"/><path class="cls-1" d="M290,95h-9.52V92.06h22.32V95h-9.52V123H290Z"/><path class="cls-1" d="M308.58,92.06h3.28V106.5h16.58V92.06h3.28v31h-3.28V109.46H311.86V123h-3.28Z"/><path class="cls-1" d="M340.15,92.06H359V95H343.43v11.07h13.9v2.87h-13.9v11.2h16.22V123h-19.5Z"/><path class="cls-1" d="M366.57,92.06h9.3c6.46,0,11,3.06,11,9.48a8.6,8.6,0,0,1-6.51,8.74L387.94,123h-3.88L377,110.83a13.86,13.86,0,0,1-1.46,0h-5.65V123h-3.28Zm9.11,16c5.06,0,7.79-2.14,7.79-6.51S380.69,95,375.68,95h-5.83v13.07Z"/><path class="cls-1" d="M142.15,72A26.38,26.38,0,0,0,97.62,49.75a34.8,34.8,0,0,0-55.1,42.41,17.49,17.49,0,0,0-9.62,9.15,18.59,18.59,0,0,0-1.72,8.3,19.31,19.31,0,0,0,6.4,14.13,12,12,0,0,0,3,.4h116c6.74,0,12.17-12,12.17-18.77V99.79C167.22,88.3,154.13,72.76,142.15,72ZM50.29,54.1A27.41,27.41,0,0,1,69.2,44.72c.63,0,1.26-.07,1.89-.07a27.6,27.6,0,0,1,22,11A26.33,26.33,0,0,0,89.59,68.7c0,.18,0,.35,0,.52a22.79,22.79,0,0,0-34,19.86,21.55,21.55,0,0,0,.15,2.55,19,19,0,0,0-5.09-.86,27.56,27.56,0,0,1-.38-36.67Z"/><path class="cls-1" d="M22.19,33.54,36.38,45.08a3.57,3.57,0,0,0,2.28.82,3.62,3.62,0,0,0,2.28-6.43L26.76,27.93a3.62,3.62,0,0,0-4.57,5.61Z"/><path class="cls-1" d="M49.33,35a3.64,3.64,0,0,0,3.24,2,3.68,3.68,0,0,0,1.63-.39,3.63,3.63,0,0,0,1.6-4.87L47.28,14.82a3.62,3.62,0,0,0-6.46,3.26Z"/><path class="cls-1" d="M11.9,54.21l17.76,5a3.74,3.74,0,0,0,1,.13,3.62,3.62,0,0,0,1-7.1l-17.76-5a3.62,3.62,0,1,0-2,7Z"/><path class="cls-1" d="M69,32.66h.06A3.62,3.62,0,0,0,72.64,29l-.29-17.39A3.58,3.58,0,0,0,68.67,8a3.62,3.62,0,0,0-3.56,3.68L65.4,29.1A3.63,3.63,0,0,0,69,32.66Z"/><path class="cls-1" d="M83.77,34.37a3.51,3.51,0,0,0,1.47.32,3.64,3.64,0,0,0,3.31-2.16L95.9,16A3.62,3.62,0,1,0,89.29,13L81.93,29.6A3.61,3.61,0,0,0,83.77,34.37Z"/><path class="cls-1" d="M97.18,42.11a3.64,3.64,0,0,0,5.12-.17l12.49-13.36a3.62,3.62,0,0,0-5.29-4.94L97,37A3.63,3.63,0,0,0,97.18,42.11Z"/><path class="cls-1" d="M30.85,71.42a3.63,3.63,0,0,0-4.22-2.9l-19,3.53a3.62,3.62,0,0,0,.66,7.18A3.11,3.11,0,0,0,9,79.16l19-3.52A3.62,3.62,0,0,0,30.85,71.42Z"/><path class="cls-1" d="M35.45,87.33a3.61,3.61,0,0,0-4.85-1.62l-15.95,8a3.62,3.62,0,0,0,1.62,6.86,3.69,3.69,0,0,0,1.61-.38l16-8A3.62,3.62,0,0,0,35.45,87.33Z"/></svg>
