<svg id="Layer_1" data-name="Layer 1" xmlns="http://www.w3.org/2000/svg" viewBox="0 0 66 90"><defs><style>.cls-1,.cls-2{fill:none;}.cls-1{stroke:#bba975;stroke-linecap:round;stroke-linejoin:round;stroke-width:2.5px;}</style></defs><circle class="cls-1" cx="33" cy="30.27" r="24.58"/><path class="cls-1" d="M46.14,60.61a39.89,39.89,0,0,1-25.59,0,5.37,5.37,0,0,1-3.33-4.71h0c0-1.88,1.47-2.74,3.33-2.12a39.89,39.89,0,0,0,25.59,0c1.85-.62,3.32.24,3.32,2.12h0A5.38,5.38,0,0,1,46.14,60.61Z"/><path class="cls-1" d="M46.14,68.12a39.89,39.89,0,0,1-25.59,0,5.36,5.36,0,0,1-3.33-4.71h0c0-1.88,1.47-2.74,3.33-2.12a39.89,39.89,0,0,0,25.59,0c1.85-.62,3.32.24,3.32,2.12h0A5.37,5.37,0,0,1,46.14,68.12Z"/><path class="cls-1" d="M46.14,75.63a39.89,39.89,0,0,1-25.59,0,5.36,5.36,0,0,1-3.33-4.71h0c0-1.88,1.47-2.74,3.33-2.12a39.89,39.89,0,0,0,25.59,0c1.85-.62,3.32.24,3.32,2.12h0A5.37,5.37,0,0,1,46.14,75.63Z"/><path class="cls-1" d="M35.81,84.32H32a3,3,0,0,1-3-3h0c0-1.63-1.67-3,0-3h9.82c1.63,0,0,1.34,0,3h0A3,3,0,0,1,35.81,84.32Z"/><rect class="cls-2" width="66" height="90"/></svg>