<svg id="Layer_1" data-name="Layer 1" xmlns="http://www.w3.org/2000/svg" viewBox="0 0 140.01 188.58"><defs><style>.cls-1{fill:#fff;}.cls-2{fill:#ea0029;}.cls-3{fill:#c1272d;}</style></defs><path class="cls-1" d="M46,.2h1.8V8.12h9.1V.2h1.8v17h-1.8V9.75h-9.1V17.2H46Z"/><path class="cls-1" d="M62.3,8.7a8.74,8.74,0,0,1,17.47,0,8.74,8.74,0,0,1-17.47,0Zm15.6,0a6.86,6.86,0,1,0-13.72,0,6.86,6.86,0,1,0,13.72,0Z"/><path class="cls-1" d="M88,0h.3L95.47,17.2H93.58L92,13.37h-7.8L82.7,17.2H80.93ZM91.4,11.82l-2.62-6.5a16.33,16.33,0,0,1-.65-2c0,.05-.35,1.22-.68,2l-2.6,6.52Z"/><path class="cls-1" d="M5.05,25.2H6.88v17H5.05Z"/><path class="cls-1" d="M11.6,25.2h5.1c3.55,0,6.05,1.68,6.05,5.2a4.72,4.72,0,0,1-3.57,4.8l4.15,7H21.2l-3.9-6.7c-.25,0-.52,0-.8,0H13.4V42.2H11.6Zm5,8.77c2.78,0,4.28-1.17,4.28-3.57s-1.53-3.6-4.28-3.6H13.4V34Z"/><path class="cls-1" d="M26.78,25.2h5.1c3.55,0,6.05,1.68,6.05,5.2a4.72,4.72,0,0,1-3.58,4.8l4.15,7H36.38l-3.9-6.7c-.25,0-.53,0-.8,0h-3.1V42.2h-1.8Zm5,8.77c2.77,0,4.27-1.17,4.27-3.57s-1.52-3.6-4.27-3.6h-3.2V34Z"/><path class="cls-1" d="M42,25.2h1.82v17H42Z"/><path class="cls-1" d="M47.6,33.7A8.46,8.46,0,0,1,56.35,25a7.8,7.8,0,0,1,5.92,2.2l-1.22,1.22a6.13,6.13,0,0,0-4.7-1.8,6.77,6.77,0,0,0-6.87,7.08,6.81,6.81,0,0,0,7,7.07,7.85,7.85,0,0,0,5-1.55V35.65H56.48v-1.6h6.74v6A9.55,9.55,0,0,1,56.5,42.4,8.52,8.52,0,0,1,47.6,33.7Z"/><path class="cls-1" d="M72.43,25h.3l7.2,17.17H78l-1.55-3.83h-7.8L67.15,42.2H65.38Zm3.42,11.79-2.62-6.5a16.33,16.33,0,0,1-.65-2c0,.05-.35,1.22-.68,2l-2.6,6.52Z"/><path class="cls-1" d="M84.88,26.8H79.65V25.2H91.9v1.6H86.68V42.2h-1.8Z"/><path class="cls-1" d="M95.13,25.2H97v17H95.13Z"/><path class="cls-1" d="M100.7,33.7a8.74,8.74,0,0,1,17.47,0,8.74,8.74,0,0,1-17.47,0Zm15.6,0a6.86,6.86,0,1,0-13.72,0,6.86,6.86,0,1,0,13.72,0Z"/><path class="cls-1" d="M124.58,30.37c-.45-.52-1.1-1.42-1.18-1.55,0,.13.15,1.23.15,1.9V42.2h-1.7V25h.3L132.3,37c.45.55,1.1,1.48,1.18,1.58,0-.05-.13-1.2-.13-1.93V25.2H135V42.37h-.3Z"/><circle class="cls-2" cx="70" cy="118.57" r="69.99"/><path class="cls-3" d="M109.24,60.61,30.77,176.53A70,70,0,0,0,109.24,60.61Z"/><rect class="cls-1" x="100.77" y="87.5" width="2.54" height="2.54" transform="translate(-25.74 44.45) rotate(-21.89)"/><rect class="cls-1" x="103.54" y="81.02" width="2.54" height="2.54" transform="translate(-23.14 45.07) rotate(-21.92)"/><rect class="cls-1" x="107.25" y="90.27" width="2.54" height="2.54" transform="translate(-26.31 47.07) rotate(-21.89)"/><rect class="cls-1" x="42.03" y="138.13" width="2.49" height="2.49"/><rect class="cls-1" x="47.63" y="138.13" width="2.49" height="2.49"/><rect class="cls-1" x="36.57" y="138.13" width="2.49" height="2.49"/><path class="cls-1" d="M99.94,95.92,96,85.67l-5.73,2.2L79.7,90.51,79,88.75,70.27,92.1l1.32,3.44-26.94,10.2c-6.4,2.39-9.79,6.76-9.79,12.65a12,12,0,0,0,12,12H84.41a2,2,0,0,1,0,4H29.84v2.49H84.41a4.49,4.49,0,0,0,0-9H46.83a9.48,9.48,0,0,1-9.47-9.47c0-4.89,2.67-8.27,8.16-10.32l27-10.2,1.78,4.66-27,10.21c-4.34,1.62-4.94,3.67-4.94,5.65a4.5,4.5,0,0,0,4.49,4.49H84.41a9.47,9.47,0,0,1,0,18.93H29.84v2.5H84.41a12,12,0,0,0,0-23.93H46.83a2,2,0,0,1-2-2c0-1,0-2.08,3.32-3.32l27-10.22,1.32,3.46L85.23,105l-.67-1.76,9.65-5.1Zm-22,9.18L73.49,93.53,77.59,92,82,103.53Zm5.75-4.24-3.06-8,8-2,.1.29,2.14,5.59L91,97ZM91,90.25l3.54-1.36,2.14,5.59-3.54,1.36Z"/></svg>