<svg id="Layer_1" data-name="Layer 1" xmlns="http://www.w3.org/2000/svg" viewBox="0 0 141.85 188.58"><defs><style>.cls-1{fill:#fff;}.cls-2{fill:#ea0029;}.cls-3{fill:#c1272d;}.cls-4{fill:none;stroke:#fff;stroke-linecap:round;stroke-linejoin:round;stroke-width:2.5px;}</style></defs><path class="cls-1" d="M43.86.2h1.8V8.12h9.1V.2h1.8v17h-1.8V9.75h-9.1V17.2h-1.8Z"/><path class="cls-1" d="M60.21,8.7a8.74,8.74,0,0,1,17.47,0,8.74,8.74,0,0,1-17.47,0Zm15.6,0a6.86,6.86,0,1,0-13.72,0,6.86,6.86,0,1,0,13.72,0Z"/><path class="cls-1" d="M85.89,0h.3L93.38,17.2h-1.9l-1.55-3.83H82.14L80.61,17.2H78.84Zm3.42,11.79-2.62-6.5a16.33,16.33,0,0,1-.65-2c0,.05-.35,1.22-.68,2l-2.6,6.52Z"/><path class="cls-1" d="M0,25.2H1.8V40.6h8v1.6H0Z"/><path class="cls-1" d="M18.82,25h.3l7.2,17.17h-1.9l-1.55-3.83h-7.8L13.55,42.2H11.78Zm3.43,11.79-2.63-6.5a18.41,18.41,0,0,1-.65-2c0,.05-.35,1.22-.67,2l-2.6,6.52Z"/><path class="cls-1" d="M32.27,30.37a17.61,17.61,0,0,1-1.17-1.55c0,.13.15,1.23.15,1.9V42.2h-1.7V25h.3L40,37c.45.55,1.1,1.48,1.17,1.58,0-.05-.12-1.2-.12-1.93V25.2h1.67V42.37h-.3Z"/><path class="cls-1" d="M47.37,25.2H51.5c5.67,0,9.2,3.35,9.2,8.5s-3.5,8.5-9.2,8.5H47.37Zm4,15.37c5,0,7.43-2.82,7.43-6.87s-2.4-6.87-7.43-6.87h-2.2V40.57Z"/><path class="cls-1" d="M62.52,39l1.5-.8A4.63,4.63,0,0,0,68.4,40.8c2,0,3.52-1.1,3.52-2.9s-1.07-2.6-3.2-3.55l-1.35-.63c-2.42-1.1-3.75-2.27-3.75-4.65S65.55,25,68.1,25a5,5,0,0,1,4.6,2.55l-1.45.9A3.46,3.46,0,0,0,68.1,26.6,2.4,2.4,0,0,0,65.4,29c0,1.5.8,2.18,2.7,3.05l1.35.63c2.82,1.25,4.27,2.65,4.27,5.2,0,2.8-2.22,4.5-5.27,4.5A6.17,6.17,0,0,1,62.52,39Z"/><path class="cls-1" d="M76.3,33.7A8.51,8.51,0,0,1,85,25a7.61,7.61,0,0,1,6.75,3.3l-1.37,1A6.21,6.21,0,0,0,85,26.62a6.77,6.77,0,0,0-6.85,7.08A6.76,6.76,0,0,0,85,40.77a6.5,6.5,0,0,0,5.6-2.85l1.4,1a8.16,8.16,0,0,1-7,3.5A8.51,8.51,0,0,1,76.3,33.7Z"/><path class="cls-1" d="M100.7,25h.3l7.2,17.17h-1.9l-1.55-3.83H97L95.42,42.2H93.65Zm3.42,11.79-2.62-6.5a16.33,16.33,0,0,1-.65-2c0,.05-.35,1.22-.68,2l-2.6,6.52Z"/><path class="cls-1" d="M111.42,25.2h5c3.62,0,6,1.75,6,5.27s-2.4,5.28-6,5.28h-3.18V42.2h-1.8Zm4.88,9c2.85,0,4.3-1.25,4.3-3.68s-1.45-3.67-4.3-3.67h-3.08v7.35Z"/><path class="cls-1" d="M126,25.2h10.35v1.6h-8.55v6.07h7.63v1.58h-7.63V40.6h8.9v1.6H126Z"/><circle class="cls-2" cx="71.85" cy="118.57" r="69.99"/><path class="cls-3" d="M111.08,60.61,32.61,176.53A70,70,0,1,0,111.08,60.61Z"/><line class="cls-4" x1="74.31" y1="89.4" x2="74.31" y2="125"/><line class="cls-4" x1="64.47" y1="88.67" x2="74.08" y2="98.6"/><line class="cls-4" x1="74.91" y1="101.79" x2="82.26" y2="94.31"/><ellipse class="cls-4" cx="74.19" cy="88.54" rx="22.06" ry="22.82"/><path class="cls-4" d="M131.78,141.64C92,154.54,52.25,125.82,12.49,138.72l12.83-13.67a54.75,54.75,0,0,1,9.29-2.4c28.11-4.74,56.23,11.78,84.34,1.78Q125.37,133,131.78,141.64Z"/><path class="cls-4" d="M24.6,135.68l10-13"/><path class="cls-4" d="M120,143.83l-10.09-17"/><path class="cls-4" d="M40.44,135.07q3.35-6.65,6.68-13.28"/><path class="cls-4" d="M104.52,144.51q-3.42-8.4-6.82-16.81"/><path class="cls-4" d="M61.38,137.7q1.13-7.17,2.26-14.34"/><path class="cls-4" d="M81.75,141.64q-1-7.83-2-15.66"/></svg>