<svg id="Layer_1" data-name="Layer 1" xmlns="http://www.w3.org/2000/svg" viewBox="0 0 92 92"><defs><style>.cls-1{fill:#bba975;}.cls-2{fill:none;}</style></defs><rect class="cls-1" x="76.77" y="21.03" width="2.54" height="2.54" transform="matrix(0.93, -0.37, 0.37, 0.93, -2.69, 30.71)"/><rect class="cls-1" x="79.53" y="14.55" width="2.54" height="2.54" transform="translate(-0.06 31.3) rotate(-21.92)"/><rect class="cls-1" x="83.25" y="23.8" width="2.54" height="2.54" transform="translate(-3.25 33.32) rotate(-21.89)"/><rect class="cls-1" x="18.03" y="71.66" width="2.49" height="2.49"/><rect class="cls-1" x="23.62" y="71.66" width="2.49" height="2.49"/><rect class="cls-1" x="12.56" y="71.66" width="2.49" height="2.49"/><path class="cls-1" d="M75.93,29.45,72,19.2l-5.74,2.2L55.7,24,55,22.28l-8.76,3.34,1.32,3.45L20.64,39.27c-6.4,2.39-9.78,6.76-9.78,12.65a12,12,0,0,0,12,12H60.4a2,2,0,0,1,0,4H5.83v2.49H60.4a4.49,4.49,0,1,0,0-9H22.82a9.48,9.48,0,0,1-9.47-9.47c0-4.89,2.67-8.27,8.17-10.32l27-10.2,1.78,4.66-27,10.2c-4.34,1.63-4.93,3.68-4.93,5.66a4.49,4.49,0,0,0,4.48,4.48H60.4a9.47,9.47,0,0,1,0,18.94H5.83v2.49H60.4a12,12,0,0,0,0-23.92H22.82a2,2,0,0,1-2-2c0-1,0-2.08,3.32-3.32l27-10.22,1.32,3.46,8.75-3.35-.67-1.75,9.65-5.1Zm-22,9.17L49.49,27.06l4.1-1.57L58,37.06Zm5.75-4.23-3.07-8,8-2,.11.28,2.14,5.6.1.28ZM67,23.77l3.54-1.35L72.72,28l-3.55,1.36Z"/><rect class="cls-2" width="92" height="92"/></svg>