<svg id="Layer_1" data-name="Layer 1" xmlns="http://www.w3.org/2000/svg" viewBox="0 0 140.01 188.58"><defs><style>.cls-1{fill:#ea0029;}.cls-2{fill:#c1272d;}.cls-3{fill:#fff;}.cls-4{fill:none;stroke:#fff;stroke-linecap:round;stroke-linejoin:round;stroke-width:3px;}</style></defs><circle class="cls-1" cx="70" cy="118.57" r="69.99"/><path class="cls-2" d="M109.24,60.61,30.77,176.53A70,70,0,0,0,109.24,60.61Z"/><path class="cls-3" d="M46,.2h1.8V8.12h9.1V.2h1.8v17h-1.8V9.75h-9.1V17.2H46Z"/><path class="cls-3" d="M62.3,8.7a8.74,8.74,0,0,1,17.47,0,8.74,8.74,0,0,1-17.47,0Zm15.6,0a6.86,6.86,0,1,0-13.72,0,6.86,6.86,0,1,0,13.72,0Z"/><path class="cls-3" d="M88,0h.3l7.2,17.17h-1.9L92,13.37h-7.8L82.7,17.2H80.93ZM91.4,11.82l-2.62-6.5a16.33,16.33,0,0,1-.65-2c0,.05-.35,1.22-.68,2l-2.6,6.52Z"/><path class="cls-3" d="M16,25.2h1.8V40.6h8v1.6H16Z"/><path class="cls-3" d="M29.27,25.2h1.82v17H29.27Z"/><path class="cls-3" d="M34.84,33.7A8.46,8.46,0,0,1,43.59,25a7.82,7.82,0,0,1,5.92,2.2l-1.22,1.22a6.13,6.13,0,0,0-4.7-1.8,6.77,6.77,0,0,0-6.87,7.08,6.81,6.81,0,0,0,7,7.07,7.84,7.84,0,0,0,5-1.55V35.65h-5v-1.6h6.75v6a9.55,9.55,0,0,1-6.72,2.35A8.52,8.52,0,0,1,34.84,33.7Z"/><path class="cls-3" d="M54.39,25.2h1.8v7.92h9.1V25.2h1.8v17h-1.8V34.75h-9.1V42.2h-1.8Z"/><path class="cls-3" d="M75.44,26.8H70.22V25.2H82.46v1.6H77.24V42.2h-1.8Z"/><path class="cls-3" d="M85.69,25.2h1.83v17H85.69Z"/><path class="cls-3" d="M95,30.37c-.45-.52-1.1-1.42-1.18-1.55,0,.13.15,1.23.15,1.9V42.2h-1.7V25h.3l10.15,12c.45.55,1.1,1.48,1.17,1.58,0-.05-.12-1.2-.12-1.93V25.2h1.67V42.37h-.3Z"/><path class="cls-3" d="M109.09,33.7a8.46,8.46,0,0,1,8.75-8.7,7.82,7.82,0,0,1,5.92,2.2l-1.22,1.22a6.13,6.13,0,0,0-4.7-1.8A6.77,6.77,0,0,0,111,33.7a6.8,6.8,0,0,0,7,7.07,7.84,7.84,0,0,0,5-1.55V35.65H118v-1.6h6.75v6A9.55,9.55,0,0,1,118,42.4,8.52,8.52,0,0,1,109.09,33.7Z"/><circle class="cls-4" cx="70" cy="103.84" r="24.58"/><path class="cls-4" d="M83.14,134.18a39.89,39.89,0,0,1-25.59,0,5.37,5.37,0,0,1-3.32-4.71h0c0-1.88,1.47-2.74,3.32-2.12a39.89,39.89,0,0,0,25.59,0c1.85-.62,3.32.24,3.32,2.12h0A5.37,5.37,0,0,1,83.14,134.18Z"/><path class="cls-4" d="M83.14,141.69a39.89,39.89,0,0,1-25.59,0A5.37,5.37,0,0,1,54.23,137h0c0-1.88,1.47-2.74,3.32-2.12a39.89,39.89,0,0,0,25.59,0c1.85-.62,3.32.24,3.32,2.12h0A5.37,5.37,0,0,1,83.14,141.69Z"/><path class="cls-4" d="M83.14,149.2a39.89,39.89,0,0,1-25.59,0,5.36,5.36,0,0,1-3.32-4.7h0c0-1.88,1.47-2.75,3.32-2.13a39.76,39.76,0,0,0,25.59,0c1.85-.62,3.32.25,3.32,2.13h0A5.36,5.36,0,0,1,83.14,149.2Z"/><path class="cls-4" d="M72.81,157.89H69a3,3,0,0,1-3-3h0c0-1.63-1.66-3,0-3h9.81c1.64,0,0,1.34,0,3h0A3,3,0,0,1,72.81,157.89Z"/></svg>