<svg id="Layer_1" data-name="Layer 1" xmlns="http://www.w3.org/2000/svg" viewBox="0 0 198.15 188.58"><defs><style>.cls-1{fill:#fff;}.cls-2{fill:#ea0029;}.cls-3{fill:#c1272d;}.cls-4,.cls-5,.cls-6{fill:none;stroke:#fff;}.cls-4{stroke-miterlimit:10;stroke-width:2px;}.cls-5,.cls-6{stroke-linecap:round;stroke-linejoin:round;}.cls-5{stroke-width:3px;}.cls-6{stroke-width:5px;}</style></defs><path class="cls-1" d="M0,.2H1.8V8.12h9.1V.2h1.8v17H10.9V9.75H1.8V17.2H0Z"/><path class="cls-1" d="M16.35,8.7A8.51,8.51,0,0,1,25.07,0a8.51,8.51,0,0,1,8.75,8.7,8.52,8.52,0,0,1-8.75,8.7A8.51,8.51,0,0,1,16.35,8.7ZM32,8.7a6.87,6.87,0,1,0-13.73,0A6.87,6.87,0,1,0,32,8.7Z"/><path class="cls-1" d="M42,0h.3l7.2,17.17h-1.9l-1.55-3.83h-7.8L36.75,17.2H35Zm3.43,11.79-2.63-6.5a18.41,18.41,0,0,1-.65-2c0,.05-.35,1.22-.67,2l-2.6,6.52Z"/><path class="cls-1" d="M58.67,0h.25l7.9,9.87L74.67,0H75V17.2H73.2V6c0-.75.07-1.87.07-1.92s-.67,1.1-1.2,1.75l-5.15,6.5h-.3L61.55,5.8a16.29,16.29,0,0,1-1.23-1.75s.1,1.17.1,1.92V17.2H58.67Z"/><path class="cls-1" d="M78.62,8.7a8.74,8.74,0,0,1,17.48,0,8.74,8.74,0,0,1-17.48,0Zm15.6,0a6.86,6.86,0,1,0-13.72,0,6.86,6.86,0,1,0,13.72,0Z"/><path class="cls-1" d="M102.5,5.37c-.45-.52-1.1-1.42-1.18-1.55,0,.13.15,1.23.15,1.9V17.2h-1.7V0h.3l10.15,12c.45.55,1.1,1.48,1.18,1.58s-.13-1.2-.13-1.93V.2H113V17.37h-.3Z"/><path class="cls-1" d="M117.45,11.4V.2h1.8V11.27c0,3,1.65,4.53,4.3,4.53s4.3-1.5,4.3-4.53V.2h1.8V11.4c0,4-2.65,6-6.1,6S117.45,15.37,117.45,11.4Z"/><path class="cls-1" d="M134.15,0h.25l7.9,9.87L150.15,0h.27V17.2h-1.75V6c0-.75.08-1.87.08-1.92s-.68,1.1-1.2,1.75l-5.15,6.5h-.3L137,5.8a17.29,17.29,0,0,1-1.22-1.75s.1,1.17.1,1.92V17.2h-1.75Z"/><path class="cls-1" d="M155.07.2h10.35V1.8h-8.55V7.87h7.63V9.45h-7.63V15.6h8.9v1.6h-10.7Z"/><path class="cls-1" d="M172.3,5.37c-.45-.52-1.1-1.42-1.18-1.55,0,.13.15,1.23.15,1.9V17.2h-1.7V0h.3L180,12c.45.55,1.1,1.48,1.18,1.58s-.13-1.2-.13-1.93V.2h1.67V17.37h-.29Z"/><path class="cls-1" d="M191.12,1.8H185.9V.2h12.25V1.8h-5.23V17.2h-1.8Z"/><path class="cls-1" d="M5.29,25.2h5.1c3.55,0,6,1.68,6,5.2a4.72,4.72,0,0,1-3.57,4.8l4.15,7H14.88L11,35.5c-.25,0-.53,0-.8,0H7.09V42.2H5.29Zm5,8.77c2.77,0,4.27-1.17,4.27-3.57S13,26.8,10.29,26.8H7.09V34Z"/><path class="cls-1" d="M20.46,25.2H30.81v1.6H22.26v6.07h7.62v1.58H22.26V40.6h8.9v1.6H20.46Z"/><path class="cls-1" d="M35,25.2h5c3.62,0,6,1.75,6,5.27s-2.4,5.28-6,5.28H36.76V42.2H35Zm4.88,9c2.84,0,4.29-1.25,4.29-3.68s-1.45-3.67-4.29-3.67H36.76v7.35Z"/><path class="cls-1" d="M53.41,25h.3l7.2,17.17H59l-1.55-3.83h-7.8L48.14,42.2H46.36Zm3.42,11.79-2.62-6.5a16.33,16.33,0,0,1-.65-2c0,.05-.35,1.22-.67,2l-2.6,6.52Z"/><path class="cls-1" d="M64.21,25.2H66v17H64.21Z"/><path class="cls-1" d="M70.76,25.2h5.1c3.55,0,6,1.68,6,5.2a4.72,4.72,0,0,1-3.58,4.8l4.15,7H80.36l-3.9-6.7c-.25,0-.52,0-.8,0h-3.1V42.2h-1.8Zm5,8.77C78.53,34,80,32.8,80,30.4s-1.52-3.6-4.27-3.6h-3.2V34Z"/><path class="cls-1" d="M101.18,37.12a10.65,10.65,0,0,0,.73-4.12h1.72a11.67,11.67,0,0,1-1.27,5.55l3,3.65h-2.18L101.36,40A7,7,0,0,1,96,42.4c-3.3,0-5.4-1.83-5.4-4.63s1.9-4.15,4.38-5.5l-.3-.37a5.41,5.41,0,0,1-1.38-3.4,3.63,3.63,0,0,1,7.25,0c0,1.73-1.23,3-3.12,4.1Zm-5.29-3.75c-2,1.1-3.4,2.2-3.4,4.3,0,1.95,1.3,3.13,3.52,3.13a5.24,5.24,0,0,0,4.27-2.1Zm3-4.9a1.94,1.94,0,1,0-3.87,0,3.64,3.64,0,0,0,1,2.4l.47.58C98,30.6,98.91,29.72,98.91,28.47Z"/><path class="cls-1" d="M114.14,25.2h4.12c5.67,0,9.2,3.35,9.2,8.5s-3.5,8.5-9.2,8.5h-4.12Zm4,15.37c5,0,7.42-2.82,7.42-6.87s-2.4-6.87-7.42-6.87h-2.2V40.57Z"/><path class="cls-1" d="M131.14,25.2h10.34v1.6h-8.54v6.07h7.62v1.58h-7.62V40.6h8.89v1.6H131.14Z"/><path class="cls-1" d="M144,39l1.5-.8a4.61,4.61,0,0,0,4.37,2.65c2,0,3.52-1.1,3.52-2.9s-1.07-2.6-3.2-3.55l-1.34-.63c-2.43-1.1-3.75-2.27-3.75-4.65S147.06,25,149.61,25a5,5,0,0,1,4.6,2.55l-1.45.9a3.46,3.46,0,0,0-3.15-1.85,2.4,2.4,0,0,0-2.7,2.42c0,1.5.8,2.18,2.7,3.05l1.35.63c2.82,1.25,4.27,2.65,4.27,5.2,0,2.8-2.22,4.5-5.27,4.5A6.16,6.16,0,0,1,144,39Z"/><path class="cls-1" d="M159,25.2h1.82v17H159Z"/><path class="cls-1" d="M164.56,33.7a8.46,8.46,0,0,1,8.75-8.7,7.82,7.82,0,0,1,5.92,2.2L178,28.42a6.13,6.13,0,0,0-4.7-1.8,6.77,6.77,0,0,0-6.87,7.08,6.8,6.8,0,0,0,7,7.07,7.84,7.84,0,0,0,5-1.55V35.65h-5v-1.6h6.75v6a9.55,9.55,0,0,1-6.72,2.35A8.51,8.51,0,0,1,164.56,33.7Z"/><path class="cls-1" d="M186.83,30.37c-.44-.52-1.1-1.42-1.17-1.55,0,.13.15,1.23.15,1.9V42.2h-1.7V25h.3l10.15,12c.45.55,1.1,1.48,1.17,1.58,0-.05-.12-1.2-.12-1.93V25.2h1.67V42.37H197Z"/><circle class="cls-2" cx="101.29" cy="118.57" r="69.99"/><path class="cls-3" d="M140.52,60.61,62.05,176.53A70,70,0,1,0,140.52,60.61Z"/><rect class="cls-4" x="101.24" y="126.04" width="22.03" height="9.74" transform="translate(224.51 261.82) rotate(180)"/><rect class="cls-4" x="123.78" y="126.04" width="22.03" height="9.74" transform="translate(269.58 261.82) rotate(180)"/><rect class="cls-4" x="78.84" y="126.04" width="22.03" height="9.74" transform="translate(179.71 261.82) rotate(180)"/><rect class="cls-4" x="56.44" y="126.04" width="22.03" height="9.74" transform="translate(134.9 261.82) rotate(180)"/><rect class="cls-4" x="101.24" y="106.59" width="22.03" height="9.74" transform="translate(224.51 222.93) rotate(180)"/><rect class="cls-4" x="112.68" y="116.7" width="22.04" height="9.74" transform="translate(247.41 243.13) rotate(180)"/><rect class="cls-4" x="90.27" y="116.7" width="22.04" height="9.74" transform="translate(202.57 243.13) rotate(180)"/><rect class="cls-4" x="67.85" y="116.7" width="22.04" height="9.74" transform="translate(157.74 243.13) rotate(180)"/><rect class="cls-4" x="56.4" y="116.7" width="11.07" height="9.74" transform="translate(123.87 243.13) rotate(180)"/><polygon class="cls-5" points="90.65 85.14 82.39 98.57 94.18 102.83 120.05 80.56 90.65 85.14"/><polyline class="cls-6" points="43.65 114.53 76.66 93.82 88.93 94.81"/></svg>