<svg id="Layer_1" data-name="Layer 1" xmlns="http://www.w3.org/2000/svg" viewBox="0 0 129 86"><defs><style>.cls-1{fill:#bba975;}.cls-2{fill:none;}</style></defs><path class="cls-1" d="M26,61.77a1.47,1.47,0,0,0,0,2.93,1.47,1.47,0,1,0,0-2.93Z"/><path class="cls-1" d="M32.14,64.7a1.47,1.47,0,1,0-1.46-1.47A1.47,1.47,0,0,0,32.14,64.7Z"/><path class="cls-1" d="M26,30.15a1.47,1.47,0,1,0,1.47,1.47A1.46,1.46,0,0,0,26,30.15Z"/><path class="cls-1" d="M32.14,33.08a1.47,1.47,0,1,0-1.46-1.46A1.46,1.46,0,0,0,32.14,33.08Z"/><path class="cls-1" d="M49.64,61.77a1.47,1.47,0,1,0,1.47,1.46A1.46,1.46,0,0,0,49.64,61.77Z"/><path class="cls-1" d="M55.75,64.7a1.47,1.47,0,1,0-1.47-1.47A1.46,1.46,0,0,0,55.75,64.7Z"/><path class="cls-1" d="M49.64,30.15a1.47,1.47,0,1,0,1.47,1.47A1.47,1.47,0,0,0,49.64,30.15Z"/><path class="cls-1" d="M55.75,33.08a1.47,1.47,0,0,0,0-2.93,1.47,1.47,0,1,0,0,2.93Z"/><path class="cls-1" d="M73.25,61.77a1.47,1.47,0,1,0,1.46,1.46A1.46,1.46,0,0,0,73.25,61.77Z"/><path class="cls-1" d="M79.35,64.7a1.47,1.47,0,1,0-1.46-1.47A1.47,1.47,0,0,0,79.35,64.7Z"/><path class="cls-1" d="M73.25,30.15a1.47,1.47,0,1,0,0,2.93,1.47,1.47,0,0,0,0-2.93Z"/><path class="cls-1" d="M79.35,33.08a1.47,1.47,0,1,0-1.46-1.46A1.46,1.46,0,0,0,79.35,33.08Z"/><path class="cls-1" d="M96.85,61.77a1.47,1.47,0,1,0,1.47,1.46A1.46,1.46,0,0,0,96.85,61.77Z"/><path class="cls-1" d="M103,64.7a1.47,1.47,0,1,0-1.46-1.47A1.47,1.47,0,0,0,103,64.7Z"/><path class="cls-1" d="M96.85,30.15a1.47,1.47,0,1,0,1.47,1.47A1.46,1.46,0,0,0,96.85,30.15Z"/><path class="cls-1" d="M103,33.08a1.47,1.47,0,1,0-1.46-1.46A1.46,1.46,0,0,0,103,33.08Z"/><path class="cls-1" d="M111.24,25.56h-2.85V17.91l-.81-.85L102,11.2,99.9,9,97.77,11.2l-5.54,5.86-.81.85v7.65H84.78V17.91l-.8-.85L78.43,11.2,76.3,9,74.17,11.2l-5.55,5.86-.8.85v7.65H61.18V17.91l-.8-.85L54.82,11.2,52.7,9,50.57,11.2,45,17.06l-.81.85v7.65H37.58V17.91l-.81-.85L31.22,11.2,29.09,9,27,11.2l-5.54,5.86-.81.85v7.65H14.83V37.67h5.78v19.5H14.83V69.29h5.78V77h17V69.29h6.63V77h17V69.29h6.64V77h17V69.29h6.64V77h17V69.29h5.78V57.17h-5.78V37.67h5.78V25.56ZM17.76,34.74V28.49h2.85v6.25Zm0,31.62V60.1h2.85v6.26ZM44.21,28.49v6.25H37.58V28.49Zm0,9.18v19.5H37.58V37.67ZM34.64,74.11H23.54v-55l5.55-5.85,5.55,5.85Zm2.94-7.75V60.1h6.63v6.26ZM67.82,28.49v6.25H61.18V28.49Zm0,9.18v19.5H61.18V37.67ZM58.25,74.11H47.15v-55l5.55-5.85,5.55,5.85Zm2.93-7.75V60.1h6.64v6.26ZM91.42,28.49v6.25H84.78V28.49Zm0,9.18v19.5H84.78V37.67ZM81.85,74.11H70.75v-55l5.55-5.85,5.55,5.85Zm2.93-7.75V60.1h6.64v6.26Zm20.67,7.75H94.35v-55l5.55-5.85,5.55,5.85Zm5.79-14v6.26h-2.85V60.1Zm0-25.36h-2.85V28.49h2.85Z"/><rect class="cls-2" width="129" height="86"/></svg>