<svg id="Layer_1" data-name="Layer 1" xmlns="http://www.w3.org/2000/svg" viewBox="0 0 121 66"><defs><style>.cls-1,.cls-2,.cls-3,.cls-4{fill:none;}.cls-1,.cls-2,.cls-3{stroke:#bba975;}.cls-1{stroke-miterlimit:10;stroke-width:2.5px;}.cls-2,.cls-3{stroke-linecap:round;stroke-linejoin:round;}.cls-2{stroke-width:3px;}.cls-3{stroke-width:5px;}</style></defs><rect class="cls-1" x="67.02" y="50.87" width="22.03" height="9.74" transform="translate(156.06 111.48) rotate(180)"/><rect class="cls-1" x="89.55" y="50.87" width="22.03" height="9.74" transform="translate(201.13 111.48) rotate(180)"/><rect class="cls-1" x="44.61" y="50.87" width="22.03" height="9.74" transform="translate(111.26 111.48) rotate(180)"/><rect class="cls-1" x="22.21" y="50.87" width="22.03" height="9.74" transform="translate(66.45 111.48) rotate(180)"/><rect class="cls-1" x="67.02" y="31.43" width="22.03" height="9.74" transform="translate(156.06 72.6) rotate(180)"/><rect class="cls-1" x="78.46" y="41.53" width="22.04" height="9.74" transform="translate(178.96 92.8) rotate(180)"/><rect class="cls-1" x="56.04" y="41.53" width="22.04" height="9.74" transform="translate(134.12 92.8) rotate(180)"/><rect class="cls-1" x="33.62" y="41.53" width="22.04" height="9.74" transform="translate(89.29 92.8) rotate(180)"/><rect class="cls-1" x="22.18" y="41.53" width="11.07" height="9.74" transform="translate(55.42 92.8) rotate(180)"/><polygon class="cls-2" points="56.43 9.97 48.17 23.4 59.95 27.67 85.82 5.39 56.43 9.97"/><polyline class="cls-3" points="9.42 39.36 42.44 18.66 54.71 19.64"/><rect class="cls-4" width="121" height="66"/></svg>