<svg id="Layer_1" data-name="Layer 1" xmlns="http://www.w3.org/2000/svg" viewBox="0 0 131 92"><defs><style>.cls-1,.cls-2{fill:none;}.cls-1{stroke:#bba975;stroke-miterlimit:10;stroke-width:2.5px;}</style></defs><rect class="cls-1" x="20.71" y="43.88" width="22.03" height="9.74"/><rect class="cls-1" x="43.11" y="43.88" width="22.03" height="9.74"/><rect class="cls-1" x="65.52" y="43.88" width="22.03" height="9.74"/><rect class="cls-1" x="87.92" y="43.88" width="22.03" height="9.74"/><rect class="cls-1" x="20.71" y="63.33" width="22.03" height="9.74"/><rect class="cls-1" x="43.11" y="63.33" width="22.03" height="9.74"/><rect class="cls-1" x="65.52" y="63.33" width="22.03" height="9.74"/><rect class="cls-1" x="87.92" y="63.33" width="22.03" height="9.74"/><rect class="cls-1" x="31.66" y="53.22" width="22.04" height="9.74"/><rect class="cls-1" x="54.08" y="53.22" width="22.04" height="9.74"/><rect class="cls-1" x="76.5" y="53.22" width="22.04" height="9.74"/><rect class="cls-1" x="98.91" y="53.22" width="11.07" height="9.74"/><rect class="cls-1" x="20.69" y="53.22" width="10.97" height="9.74"/><polygon class="cls-1" points="74.11 21.37 67.48 21.37 63.52 21.37 56.88 21.37 10.43 34.06 10.43 43.65 63.52 43.65 67.48 43.65 120.57 43.65 120.57 34.06 74.11 21.37"/><rect class="cls-1" x="57.61" y="18.93" width="15.79" height="2.44"/><rect class="cls-2" width="131" height="92"/></svg>