<svg id="Layer_1" data-name="Layer 1" xmlns="http://www.w3.org/2000/svg" viewBox="0 0 131 92"><defs><style>.cls-1,.cls-2{fill:none;}.cls-1{stroke:#bba975;stroke-linecap:round;stroke-linejoin:round;stroke-width:2.5px;}</style></defs><line class="cls-1" x1="67.68" y1="30.01" x2="67.68" y2="65.6"/><line class="cls-1" x1="57.84" y1="29.27" x2="67.44" y2="39.21"/><line class="cls-1" x1="68.27" y1="42.4" x2="75.62" y2="34.92"/><ellipse class="cls-1" cx="67.56" cy="29.15" rx="22.06" ry="22.82"/><path class="cls-1" d="M125.14,82.25C85.38,95.15,45.62,66.43,5.86,79.33L18.68,65.65a54.85,54.85,0,0,1,9.3-2.4C56.09,58.52,84.2,75,112.32,65Z"/><path class="cls-1" d="M18,76.28l10-13"/><path class="cls-1" d="M113.38,84.43l-10.08-17"/><path class="cls-1" d="M33.81,75.68l6.67-13.29"/><path class="cls-1" d="M97.88,85.12q-3.41-8.4-6.82-16.81"/><path class="cls-1" d="M54.74,78.31Q55.88,71.14,57,64"/><path class="cls-1" d="M75.11,82.24q-1-7.81-2-15.65"/><rect class="cls-2" width="131" height="92"/></svg>