<svg id="Layer_1" data-name="Layer 1" xmlns="http://www.w3.org/2000/svg" viewBox="0 0 171.02 188.58"><defs><style>.cls-1{fill:#fff;}.cls-2{fill:#ea0029;}.cls-3{fill:#c1272d;}</style></defs><path class="cls-1" d="M61,.2h1.8V8.12h9.09V.2h1.8v17h-1.8V9.75H62.84V17.2H61Z"/><path class="cls-1" d="M77.39,8.7a8.74,8.74,0,0,1,17.47,0,8.74,8.74,0,0,1-17.47,0ZM93,8.7a6.86,6.86,0,1,0-13.72,0A6.86,6.86,0,1,0,93,8.7Z"/><path class="cls-1" d="M103.06,0h.3l7.2,17.17h-1.9l-1.55-3.83h-7.8L97.79,17.2H96Zm3.42,11.79-2.62-6.5a18.41,18.41,0,0,1-.65-2c0,.05-.35,1.22-.67,2l-2.6,6.52Z"/><path class="cls-1" d="M0,25H.25l7.9,9.87L16,25h.27V42.2H14.52V31c0-.75.08-1.87.08-1.92s-.68,1.1-1.2,1.75L8.25,37.3H8L2.87,30.8a17.29,17.29,0,0,1-1.22-1.75s.1,1.17.1,1.92V42.2H0Z"/><path class="cls-1" d="M26.57,25h.3l7.2,17.17h-1.9l-1.55-3.83h-7.8L21.3,42.2H19.53ZM30,36.82l-2.63-6.5a18.41,18.41,0,0,1-.65-2c0,.05-.35,1.22-.67,2l-2.6,6.52Z"/><path class="cls-1" d="M37.38,25.2H39.2v17H37.38Z"/><path class="cls-1" d="M46.65,30.37c-.45-.52-1.1-1.42-1.18-1.55,0,.13.15,1.23.15,1.9V42.2h-1.7V25h.31L54.37,37c.45.55,1.1,1.48,1.18,1.58,0-.05-.13-1.2-.13-1.93V25.2H57.1V42.37h-.3Z"/><path class="cls-1" d="M65.47,26.8H60.25V25.2H72.5v1.6H67.27V42.2h-1.8Z"/><path class="cls-1" d="M75.65,25.2H86v1.6H77.45v6.07h7.62v1.58H77.45V40.6h8.9v1.6H75.65Z"/><path class="cls-1" d="M92.87,30.37a17.61,17.61,0,0,1-1.17-1.55c0,.13.15,1.23.15,1.9V42.2h-1.7V25h.3L100.6,37c.45.55,1.1,1.48,1.17,1.58,0-.05-.12-1.2-.12-1.93V25.2h1.67V42.37H103Z"/><path class="cls-1" d="M113.62,25h.3l7.2,17.17h-1.9l-1.55-3.83h-7.8l-1.52,3.83h-1.78Zm3.43,11.79-2.63-6.5a18.41,18.41,0,0,1-.65-2c0,.05-.35,1.22-.67,2l-2.6,6.52Z"/><path class="cls-1" d="M127.07,30.37a17.61,17.61,0,0,1-1.17-1.55c0,.13.15,1.23.15,1.9V42.2h-1.7V25h.3L134.8,37c.45.55,1.1,1.48,1.17,1.58,0-.05-.12-1.2-.12-1.93V25.2h1.67V42.37h-.3Z"/><path class="cls-1" d="M141.2,33.7a8.51,8.51,0,0,1,8.72-8.7,7.61,7.61,0,0,1,6.75,3.3l-1.37,1a6.21,6.21,0,0,0-5.38-2.68,6.77,6.77,0,0,0-6.85,7.08,6.76,6.76,0,0,0,6.85,7.07,6.5,6.5,0,0,0,5.6-2.85l1.4,1a8.16,8.16,0,0,1-7,3.5A8.51,8.51,0,0,1,141.2,33.7Z"/><path class="cls-1" d="M160.32,25.2h10.35v1.6h-8.55v6.07h7.63v1.58h-7.63V40.6H171v1.6h-10.7Z"/><circle class="cls-2" cx="85.09" cy="118.57" r="69.99"/><path class="cls-3" d="M124.33,60.61,45.85,176.53A70,70,0,0,0,124.33,60.61Z"/><rect class="cls-1" x="80.61" y="122.22" width="2.29" height="2.29"/><rect class="cls-1" x="86.96" y="122.22" width="2.29" height="2.29"/><rect class="cls-1" x="74.26" y="122.22" width="2.29" height="2.29"/><path class="cls-1" d="M67.65,130.9a5.11,5.11,0,1,0,5.1,5.11A5.11,5.11,0,0,0,67.65,130.9Zm0,7.92A2.82,2.82,0,1,1,70.46,136,2.81,2.81,0,0,1,67.65,138.82Z"/><path class="cls-1" d="M114.85,124.85a11.26,11.26,0,0,0-2.62.32L82.65,113.49l-.72-.29-.75.21-7.39,2.12-9.6-31.62H59.6a4.5,4.5,0,0,0-4.37-3.47H48.67a4.5,4.5,0,0,0,0,9h6.56a4.5,4.5,0,0,0,4.3-3.25h3l9.1,30-5.44,1.56-1.66.47v7.13a11.15,11.15,0,1,0,12.9,16.11H105.1a11.15,11.15,0,1,0,9.75-16.57ZM55.23,87.15H48.67a2.22,2.22,0,0,1,0-4.43h6.56a2.22,2.22,0,0,1,0,4.43Zm11.55,32.76,15-4.29,27.36,10.8a11.25,11.25,0,0,0-5,6.22H78.28a11.17,11.17,0,0,0-10.63-7.79c-.3,0-.59,0-.87,0Zm.87,25A8.87,8.87,0,1,1,76.51,136,8.88,8.88,0,0,1,67.65,144.87Zm10.7-5.74A11.1,11.1,0,0,0,78.8,136c0-.37,0-.73,0-1.08h25c0,.35,0,.71,0,1.08a11.1,11.1,0,0,0,.45,3.12Zm36.5,5.74a8.87,8.87,0,1,1,8.86-8.86A8.88,8.88,0,0,1,114.85,144.87Z"/><path class="cls-1" d="M114.85,130.9A5.11,5.11,0,1,0,120,136,5.11,5.11,0,0,0,114.85,130.9Zm0,7.92a2.82,2.82,0,1,1,2.81-2.81A2.82,2.82,0,0,1,114.85,138.82Z"/></svg>